<?xml version="1.0" standalone="no"?>
<!DOCTYPE svg PUBLIC "-//W3C//DTD SVG 20010904//EN"
 "http://www.w3.org/TR/2001/REC-SVG-20010904/DTD/svg10.dtd">
<svg version="1.0" xmlns="http://www.w3.org/2000/svg"
 width="1280.000000pt" height="640.000000pt" viewBox="0 0 1280.000000 640.000000"
 preserveAspectRatio="xMidYMid meet">
<metadata>
Created by potrace 1.15, written by Peter Selinger 2001-2017
</metadata>
<g transform="translate(0.000000,640.000000) scale(0.100000,-0.100000)"
fill="#000000" stroke="none">
<path d="M6586 5788 c6 -526 -3 -984 -25 -1208 l-6 -65 -320 -17 c-421 -22
-2459 -130 -3237 -172 l-613 -32 -70 62 c-38 35 -118 110 -178 166 l-108 103
-21 186 -22 187 -106 11 c-58 7 -126 14 -152 18 l-48 6 0 -37 c0 -20 -3 -36
-6 -36 -4 0 -46 38 -93 84 -244 237 -984 926 -994 926 -29 0 -480 -60 -485
-64 -2 -3 196 -398 442 -877 286 -561 442 -875 435 -880 -6 -3 -43 -9 -83 -13
-75 -7 -166 -31 -228 -61 -45 -22 -53 -49 -46 -163 7 -120 49 -183 161 -242
26 -14 47 -27 47 -30 0 -3 -187 -142 -414 -310 -362 -266 -441 -330 -408 -330
4 0 115 13 247 30 l241 30 249 116 c138 63 332 154 432 200 l183 85 107 -35
c198 -64 1189 -323 1318 -345 103 -17 396 -39 1085 -81 1034 -62 1420 -91
1510 -111 25 -6 89 -16 143 -22 l99 -12 -120 -180 c-239 -359 -116 -240 -1472
-1435 -668 -589 -1216 -1075 -1218 -1079 -5 -15 50 -71 89 -91 46 -24 125 -26
195 -5 28 8 93 40 145 71 230 139 1008 658 2003 1338 373 254 454 306 475 302
14 -3 131 -28 260 -56 426 -93 616 -116 1026 -129 282 -9 297 -7 341 58 80
117 113 431 60 577 -21 60 -81 147 -115 167 -47 27 -156 38 -278 27 -122 -12
-165 -18 -382 -61 -84 -16 -155 -29 -156 -27 -1 2 144 118 324 258 l326 255
135 6 c83 5 185 18 264 34 141 29 420 106 556 154 69 24 113 31 235 40 329 24
827 43 2240 86 672 21 969 34 1040 46 89 15 307 73 507 134 484 149 699 275
698 410 -1 70 -28 194 -50 230 -41 66 -120 124 -275 201 -123 60 -171 90 -260
164 -223 184 -354 252 -565 294 -195 39 -706 86 -927 86 -98 0 -674 -29 -2662
-135 -261 -14 -478 -22 -482 -18 -4 4 -51 143 -104 308 -276 856 -437 1351
-445 1365 -5 9 -77 29 -212 57 -111 23 -211 42 -221 43 -17 0 -18 -26 -11
-562z"/>
</g>
</svg>
