<svg width="169" height="128" viewBox="0 0 169 128" fill="none" xmlns="http://www.w3.org/2000/svg">
<path d="M85.9941 126.273C120.6 126.273 148.653 98.3663 148.653 63.942C148.653 29.5177 120.6 1.61131 85.9941 1.61131C51.3884 1.61131 23.3348 29.5177 23.3348 63.942C23.3348 98.3663 51.3884 126.273 85.9941 126.273Z" stroke="white" stroke-width="1.51786" stroke-miterlimit="10"/>
<path d="M85.9939 126.273C110.519 126.273 130.4 98.3663 130.4 63.942C130.4 29.5177 110.519 1.61131 85.9939 1.61131C61.469 1.61131 41.5876 29.5177 41.5876 63.942C41.5876 98.3663 61.469 126.273 85.9939 126.273Z" stroke="white" stroke-width="1.51786" stroke-miterlimit="10"/>
<path d="M85.9938 126.273C100.454 126.273 112.176 98.3663 112.176 63.942C112.176 29.5177 100.454 1.61131 85.9938 1.61131C71.5341 1.61131 59.8121 29.5177 59.8121 63.942C59.8121 98.3663 71.5341 126.273 85.9938 126.273Z" stroke="white" stroke-width="1.51786" stroke-miterlimit="10"/>
<path d="M85.9942 126.273C90.3731 126.273 93.9229 98.3663 93.9229 63.942C93.9229 29.5177 90.3731 1.61131 85.9942 1.61131C81.6153 1.61131 78.0656 29.5177 78.0656 63.942C78.0656 98.3663 81.6153 126.273 85.9942 126.273Z" stroke="white" stroke-width="1.51786" stroke-miterlimit="10"/>
<path d="M50.9141 12.392H121.217" stroke="white" stroke-width="1.51786" stroke-miterlimit="10" stroke-linecap="round"/>
<path d="M31.5199 33.0174H140.439" stroke="white" stroke-width="1.51786" stroke-miterlimit="10" stroke-linecap="round"/>
<path d="M31.5763 94.8378H140.382" stroke="white" stroke-width="1.51786" stroke-miterlimit="10" stroke-linecap="round"/>
<path d="M50.7428 115.463H121.217" stroke="white" stroke-width="1.51786" stroke-miterlimit="10" stroke-linecap="round"/>
<path d="M2.8513 48.5768V78.2168H21.1293C28.7673 78.2168 30.2113 76.9248 30.2113 70.0468V69.2868C30.2113 64.8408 28.7673 63.5488 23.6373 63.2068C27.9313 62.7508 29.1473 61.6488 29.1473 57.0888V56.2908C29.1473 49.7928 27.8933 48.5768 21.1293 48.5768H2.8513ZM10.8313 71.5288V66.2088H18.8873C21.6993 66.2088 22.2313 66.6268 22.2313 68.9068C22.2313 71.0348 21.6993 71.5288 18.8873 71.5288H10.8313ZM10.8313 60.0528V55.1128H18.5073C20.7493 55.1128 21.1673 55.5308 21.1673 57.6208C21.1673 59.6348 20.7493 60.0528 18.5073 60.0528H10.8313ZM59.1688 66.0568V48.5768H51.1888V66.0568C51.1888 71.2628 50.3908 72.2128 46.0208 72.2128C41.6508 72.2128 40.8528 71.2628 40.8528 66.0568V48.5768H32.8728V66.0568C32.8728 76.6968 34.9248 78.6728 46.0208 78.6728C57.1168 78.6728 59.1688 76.6968 59.1688 66.0568ZM90.1183 48.5768H81.3783L75.7543 59.5968H75.5263L70.0163 48.5768H60.8963L71.6123 67.6528V78.2168H79.5923V67.6528L90.1183 48.5768ZM111.212 78.2168V56.1768H111.44L115.81 78.2168H126.45L131.466 56.1768H131.694V78.2168H139.674V48.5768H125.728L121.282 71.3768H120.978L117.14 48.5768H103.232V78.2168H111.212ZM142.717 48.5768V78.2168H166.999V71.3768H150.697V66.4368H165.061V59.9768H150.697V55.4168H166.999V48.5768H142.717Z" fill="black"/>
<path d="M2.8513 48.5768V47.4349H1.70943V48.5768H2.8513ZM2.8513 78.2168H1.70943V79.3587H2.8513V78.2168ZM23.6373 63.2068L23.5167 62.0713L23.5613 64.3462L23.6373 63.2068ZM10.8313 71.5288H9.68943V72.6707H10.8313V71.5288ZM10.8313 66.2088V65.0669H9.68943V66.2088H10.8313ZM10.8313 60.0528H9.68943V61.1947H10.8313V60.0528ZM10.8313 55.1128V53.9709H9.68943V55.1128H10.8313ZM1.70943 48.5768V78.2168H3.99317V48.5768H1.70943ZM2.8513 79.3587H21.1293V77.0749H2.8513V79.3587ZM21.1293 79.3587C23.0563 79.3587 24.6653 79.2785 25.9827 79.0295C27.3061 78.7794 28.4277 78.3426 29.2979 77.5603C30.1795 76.7678 30.688 75.7252 30.9782 74.4852C31.2636 73.2656 31.3532 71.7888 31.3532 70.0468H29.0694C29.0694 71.7438 28.9785 73.0078 28.7545 73.9648C28.5353 74.9015 28.2054 75.4715 27.7712 75.8619C27.3257 76.2623 26.6541 76.5784 25.5586 76.7855C24.4571 76.9936 23.0213 77.0749 21.1293 77.0749V79.3587ZM31.3532 70.0468V69.2868H29.0694V70.0468H31.3532ZM31.3532 69.2868C31.3532 67.0014 30.9972 65.1327 29.6209 63.8672C28.2992 62.652 26.2831 62.2388 23.7133 62.0675L23.5613 64.3462C26.1215 64.5168 27.3924 64.9206 28.0752 65.5484C28.7034 66.1259 29.0694 67.1263 29.0694 69.2868H31.3532ZM23.7579 64.3423C25.9055 64.1142 27.6827 63.7054 28.8381 62.4651C30.0026 61.2151 30.2892 59.3918 30.2892 57.0888H28.0054C28.0054 59.3458 27.684 60.3536 27.167 60.9085C26.6409 61.4732 25.6631 61.8434 23.5167 62.0713L23.7579 64.3423ZM30.2892 57.0888V56.2908H28.0054V57.0888H30.2892ZM30.2892 56.2908C30.2892 54.6463 30.2115 53.2526 29.9615 52.1018C29.7082 50.9357 29.2613 49.9397 28.4669 49.1746C27.6765 48.4133 26.655 47.9897 25.4614 47.749C24.2778 47.5103 22.8389 47.4349 21.1293 47.4349V49.7187C22.8017 49.7187 24.056 49.7953 25.0099 49.9877C25.9538 50.178 26.5141 50.4645 26.8827 50.8195C27.2473 51.1707 27.5366 51.6971 27.7298 52.5865C27.9264 53.4913 28.0054 54.6864 28.0054 56.2908H30.2892ZM21.1293 47.4349H2.8513V49.7187H21.1293V47.4349ZM11.9732 71.5288V66.2088H9.68943V71.5288H11.9732ZM10.8313 67.3507H18.8873V65.0669H10.8313V67.3507ZM18.8873 67.3507C19.5754 67.3507 20.0585 67.3773 20.4069 67.4358C20.7553 67.4944 20.8695 67.5696 20.8983 67.5928C20.9128 67.6044 21.0894 67.7263 21.0894 68.9068H23.3732C23.3732 67.8073 23.2838 66.5803 22.3292 65.8129C21.8736 65.4466 21.3276 65.2748 20.7853 65.1837C20.2431 65.0926 19.6052 65.0669 18.8873 65.0669V67.3507ZM21.0894 68.9068C21.0894 69.9881 20.9206 70.1079 20.8984 70.1259C20.8623 70.1549 20.7403 70.2327 20.3953 70.2943C20.0499 70.356 19.5689 70.3869 18.8873 70.3869V72.6707C19.6117 72.6707 20.2517 72.6399 20.7969 72.5424C21.3425 72.445 21.8808 72.2663 22.3292 71.9058C23.2759 71.1447 23.3732 69.9536 23.3732 68.9068H21.0894ZM18.8873 70.3869H10.8313V72.6707H18.8873V70.3869ZM11.9732 60.0528V55.1128H9.68943V60.0528H11.9732ZM10.8313 56.2547H18.5073V53.9709H10.8313V56.2547ZM18.5073 56.2547C19.0473 56.2547 19.4019 56.2812 19.6419 56.3299C19.8728 56.3767 19.9081 56.4266 19.8913 56.4107C19.869 56.3894 19.9099 56.4046 19.9524 56.5956C19.9987 56.8031 20.0254 57.1197 20.0254 57.6208H22.3092C22.3092 57.0769 22.2837 56.5575 22.1815 56.0989C22.0756 55.6237 21.8719 55.1424 21.4648 54.7555C21.0632 54.3737 20.5736 54.1886 20.0956 54.0917C19.6267 53.9966 19.0883 53.9709 18.5073 53.9709V56.2547ZM20.0254 57.6208C20.0254 58.1017 19.9987 58.401 19.9542 58.5943C19.914 58.7689 19.8774 58.7772 19.9023 58.7542C19.9187 58.7389 19.8803 58.7894 19.6455 58.8362C19.4033 58.8845 19.0467 58.9109 18.5073 58.9109V61.1947C19.0889 61.1947 19.6253 61.1689 20.092 61.0759C20.5661 60.9814 21.0526 60.8014 21.4538 60.4299C21.8635 60.0507 22.0715 59.5768 22.1797 59.1066C22.2837 58.6551 22.3092 58.1469 22.3092 57.6208H20.0254ZM18.5073 58.9109H10.8313V61.1947H18.5073V58.9109ZM59.1688 48.5768H60.3107V47.4349H59.1688V48.5768ZM51.1888 48.5768V47.4349H50.0469V48.5768H51.1888ZM40.8528 48.5768H41.9947V47.4349H40.8528V48.5768ZM32.8728 48.5768V47.4349H31.7309V48.5768H32.8728ZM60.3107 66.0568V48.5768H58.0269V66.0568H60.3107ZM59.1688 47.4349H51.1888V49.7187H59.1688V47.4349ZM50.0469 48.5768V66.0568H52.3307V48.5768H50.0469ZM50.0469 66.0568C50.0469 67.3432 49.9965 68.2983 49.8709 69.0189C49.7456 69.7377 49.5616 70.1234 49.369 70.3528C49.0049 70.7865 48.2595 71.0709 46.0208 71.0709V73.3547C48.1521 73.3547 49.9907 73.1641 51.1181 71.8213C51.6712 71.1624 51.9598 70.3345 52.1207 69.411C52.2813 68.4894 52.3307 67.3735 52.3307 66.0568H50.0469ZM46.0208 71.0709C43.7821 71.0709 43.0367 70.7865 42.6726 70.3528C42.48 70.1234 42.2959 69.7377 42.1707 69.0189C42.0451 68.2983 41.9947 67.3432 41.9947 66.0568H39.7109C39.7109 67.3735 39.7602 68.4894 39.9208 69.411C40.0818 70.3345 40.3703 71.1624 40.9235 71.8213C42.0509 73.1641 43.8895 73.3547 46.0208 73.3547V71.0709ZM41.9947 66.0568V48.5768H39.7109V66.0568H41.9947ZM40.8528 47.4349H32.8728V49.7187H40.8528V47.4349ZM31.7309 48.5768V66.0568H34.0147V48.5768H31.7309ZM31.7309 66.0568C31.7309 68.7368 31.8584 70.9548 32.251 72.7595C32.6469 74.5798 33.3293 76.0595 34.495 77.1785C35.6563 78.2934 37.1838 78.941 39.0608 79.3174C40.9278 79.6918 43.2285 79.8147 46.0208 79.8147V77.5309C43.265 77.5309 41.1482 77.4068 39.5098 77.0782C37.8812 76.7516 36.8152 76.2402 36.0766 75.5311C35.3423 74.8261 34.8181 73.8169 34.4826 72.2741C34.1436 70.7159 34.0147 68.6969 34.0147 66.0568H31.7309ZM46.0208 79.8147C48.813 79.8147 51.1137 79.6918 52.9808 79.3174C54.8577 78.941 56.3852 78.2934 57.5466 77.1785C58.7123 76.0595 59.3946 74.5798 59.7906 72.7595C60.1831 70.9548 60.3107 68.7368 60.3107 66.0568H58.0269C58.0269 68.6969 57.8979 70.7159 57.559 72.2741C57.2234 73.8169 56.6993 74.8261 55.965 75.5311C55.2263 76.2402 54.1603 76.7516 52.5318 77.0782C50.8933 77.4068 48.7765 77.5309 46.0208 77.5309V79.8147ZM90.1183 48.5768L91.1181 49.1285L92.0526 47.4349H90.1183V48.5768ZM81.3783 48.5768V47.4349H80.6791L80.3612 48.0577L81.3783 48.5768ZM75.7543 59.5968V60.7387H76.4535L76.7714 60.1159L75.7543 59.5968ZM75.5263 59.5968L74.505 60.1075L74.8206 60.7387H75.5263V59.5968ZM70.0163 48.5768L71.0376 48.0661L70.722 47.4349H70.0163V48.5768ZM60.8963 48.5768V47.4349H58.9451L59.9008 49.1361L60.8963 48.5768ZM71.6123 67.6528H72.7542V67.354L72.6078 67.0936L71.6123 67.6528ZM71.6123 78.2168H70.4704V79.3587H71.6123V78.2168ZM79.5923 78.2168V79.3587H80.7342V78.2168H79.5923ZM79.5923 67.6528L78.5925 67.1011L78.4504 67.3587V67.6528H79.5923ZM90.1183 47.4349H81.3783V49.7187H90.1183V47.4349ZM80.3612 48.0577L74.7372 59.0778L76.7714 60.1159L82.3954 49.0959L80.3612 48.0577ZM75.7543 58.4549H75.5263V60.7387H75.7543V58.4549ZM76.5476 59.0862L71.0376 48.0661L68.995 49.0875L74.505 60.1075L76.5476 59.0862ZM70.0163 47.4349H60.8963V49.7187H70.0163V47.4349ZM59.9008 49.1361L70.6168 68.2121L72.6078 67.0936L61.8918 48.0176L59.9008 49.1361ZM70.4704 67.6528V78.2168H72.7542V67.6528H70.4704ZM71.6123 79.3587H79.5923V77.0749H71.6123V79.3587ZM80.7342 78.2168V67.6528H78.4504V78.2168H80.7342ZM80.5921 68.2045L91.1181 49.1285L89.1185 48.0251L78.5925 67.1011L80.5921 68.2045ZM111.212 78.2168V79.3587H112.354V78.2168H111.212ZM111.212 56.1768V55.0349H110.07V56.1768H111.212ZM111.44 56.1768L112.56 55.9547L112.378 55.0349H111.44V56.1768ZM115.81 78.2168L114.69 78.4389L114.872 79.3587H115.81V78.2168ZM126.45 78.2168V79.3587H127.361L127.564 78.4702L126.45 78.2168ZM131.466 56.1768V55.0349H130.555L130.353 55.9234L131.466 56.1768ZM131.694 56.1768H132.836V55.0349H131.694V56.1768ZM131.694 78.2168H130.552V79.3587H131.694V78.2168ZM139.674 78.2168V79.3587H140.816V78.2168H139.674ZM139.674 48.5768H140.816V47.4349H139.674V48.5768ZM125.728 48.5768V47.4349H124.787L124.607 48.3583L125.728 48.5768ZM121.282 71.3768V72.5187H122.223L122.403 71.5954L121.282 71.3768ZM120.978 71.3768L119.852 71.5664L120.012 72.5187H120.978V71.3768ZM117.14 48.5768L118.266 48.3873L118.106 47.4349H117.14V48.5768ZM103.232 48.5768V47.4349H102.09V48.5768H103.232ZM103.232 78.2168H102.09V79.3587H103.232V78.2168ZM112.354 78.2168V56.1768H110.07V78.2168H112.354ZM111.212 57.3187H111.44V55.0349H111.212V57.3187ZM110.32 56.3989L114.69 78.4389L116.93 77.9947L112.56 55.9547L110.32 56.3989ZM115.81 79.3587H126.45V77.0749H115.81V79.3587ZM127.564 78.4702L132.58 56.4302L130.353 55.9234L125.337 77.9634L127.564 78.4702ZM131.466 57.3187H131.694V55.0349H131.466V57.3187ZM130.552 56.1768V78.2168H132.836V56.1768H130.552ZM131.694 79.3587H139.674V77.0749H131.694V79.3587ZM140.816 78.2168V48.5768H138.532V78.2168H140.816ZM139.674 47.4349H125.728V49.7187H139.674V47.4349ZM124.607 48.3583L120.161 71.1583L122.403 71.5954L126.849 48.7954L124.607 48.3583ZM121.282 70.2349H120.978V72.5187H121.282V70.2349ZM122.104 71.1873L118.266 48.3873L116.014 48.7664L119.852 71.5664L122.104 71.1873ZM117.14 47.4349H103.232V49.7187H117.14V47.4349ZM102.09 48.5768V78.2168H104.374V48.5768H102.09ZM103.232 79.3587H111.212V77.0749H103.232V79.3587ZM142.717 48.5768V47.4349H141.575V48.5768H142.717ZM142.717 78.2168H141.575V79.3587H142.717V78.2168ZM166.999 78.2168V79.3587H168.14V78.2168H166.999ZM166.999 71.3768H168.14V70.2349H166.999V71.3768ZM150.697 71.3768H149.555V72.5187H150.697V71.3768ZM150.697 66.4368V65.2949H149.555V66.4368H150.697ZM165.061 66.4368V67.5787H166.202V66.4368H165.061ZM165.061 59.9768H166.202V58.8349H165.061V59.9768ZM150.697 59.9768H149.555V61.1187H150.697V59.9768ZM150.697 55.4168V54.2749H149.555V55.4168H150.697ZM166.999 55.4168V56.5587H168.14V55.4168H166.999ZM166.999 48.5768H168.14V47.4349H166.999V48.5768ZM141.575 48.5768V78.2168H143.858V48.5768H141.575ZM142.717 79.3587H166.999V77.0749H142.717V79.3587ZM168.14 78.2168V71.3768H165.857V78.2168H168.14ZM166.999 70.2349H150.697V72.5187H166.999V70.2349ZM151.838 71.3768V66.4368H149.555V71.3768H151.838ZM150.697 67.5787H165.061V65.2949H150.697V67.5787ZM166.202 66.4368V59.9768H163.919V66.4368H166.202ZM165.061 58.8349H150.697V61.1187H165.061V58.8349ZM151.838 59.9768V55.4168H149.555V59.9768H151.838ZM150.697 56.5587H166.999V54.2749H150.697V56.5587ZM168.14 55.4168V48.5768H165.857V55.4168H168.14ZM166.999 47.4349H142.717V49.7187H166.999V47.4349Z" fill="white"/>
</svg>
